<svg height="511pt" viewBox="1 0 511.99975 511" width="511pt" xmlns="http://www.w3.org/2000/svg"><path d="m451.101562 337.507812c1.464844 1.460938 3.382813 2.195313 5.304688 2.195313 1.917969 0 3.835938-.734375 5.300781-2.195313 2.929688-2.929687 2.929688-7.679687 0-10.605468l-238.253906-238.257813c-2.929687-2.929687-7.679687-2.929687-10.605469 0-2.929687 2.929688-2.929687 7.675781 0 10.605469zm0 0"/><path d="m483.976562 349.167969c-2.929687-2.929688-7.679687-2.929688-10.605468 0-2.929688 2.929687-2.929688 7.675781 0 10.605469 15.238281 15.238281 23.628906 35.5 23.628906 57.046874 0 21.550782-8.390625 41.8125-23.628906 57.050782-31.457032 31.453125-82.640625 31.457031-114.09375 0l-204.414063-204.410156c-2.929687-2.929688-7.675781-2.929688-10.605469 0-2.929687 2.925781-2.929687 7.675781 0 10.605468l204.410157 204.410156c18.652343 18.652344 43.152343 27.980469 67.65625 27.980469 24.5 0 49-9.328125 67.652343-27.980469 18.070313-18.070312 28.023438-42.097656 28.023438-67.652343 0-25.558594-9.953125-49.585938-28.023438-67.65625zm0 0"/><path d="m416.324219 480.4375c35.074219 0 63.613281-28.539062 63.613281-63.613281 0-35.078125-28.539062-63.613281-63.613281-63.613281-35.078125 0-63.613281 28.535156-63.613281 63.613281 0 35.074219 28.535156 63.613281 63.613281 63.613281zm-16.921875-109.183594 8.320312 12.621094c1.441406 2.1875 3.832032 3.375 6.269532 3.375 1.417968 0 2.847656-.402344 4.121093-1.238281 3.457031-2.28125 4.414063-6.933594 2.132813-10.390625l-4.867188-7.386719c.316406-.003906.628906-.023437.945313-.023437 15.074219 0 28.570312 6.898437 37.492187 17.703124-1.742187-.414062-3.558594-.636718-5.429687-.636718-4.140625 0-7.5 3.355468-7.5 7.5 0 4.140625 3.359375 7.5 7.5 7.5 4.707031 0 8.53125 3.824218 8.53125 8.53125 0 4.703125-3.828125 8.53125-8.53125 8.53125-3.4375 0-6.523438-2.046875-7.863281-5.214844-1.613282-3.8125-6.015626-5.597656-9.828126-3.984375-3.816406 1.613281-5.601562 6.015625-3.988281 9.828125 3.695313 8.730469 12.203125 14.371094 21.683594 14.371094 5.976563 0 11.4375-2.246094 15.59375-5.929688-4.464844 22.226563-24.136719 39.027344-47.660156 39.027344-26.804688 0-48.613281-21.808594-48.613281-48.613281 0-20.859375 13.203124-38.6875 31.691406-45.570313zm0 0"/><path d="m235.964844 243.964844c1.921875 0 3.839844-.730469 5.304687-2.195313 2.929688-2.929687 2.929688-7.675781 0-10.605469l-228.464843-228.46875c-2.929688-2.925781-7.679688-2.925781-10.609376 0-2.925781 2.929688-2.925781 7.679688 0 10.605469l228.46875 228.46875c1.464844 1.464844 3.382813 2.195313 5.300782 2.195313zm0 0"/><path d="m357.496094 347.390625-92.183594-92.1875c-2.929688-2.925781-7.679688-2.925781-10.605469 0-2.929687 2.929687-2.929687 7.679687 0 10.609375l92.183594 92.183594c1.464844 1.464844 3.382813 2.195312 5.304687 2.195312 1.917969 0 3.835938-.730468 5.300782-2.195312 2.929687-2.925782 2.929687-7.675782 0-10.605469zm0 0"/><path d="m384.730469 415.351562 11.355469 7.683594c1.289062.871094 2.75 1.289063 4.195312 1.289063 2.40625 0 4.773438-1.15625 6.21875-3.300781 2.324219-3.429688 1.421875-8.09375-2.007812-10.414063l-11.355469-7.679687c-3.433594-2.320313-8.09375-1.421876-10.414063 2.007812-2.320312 3.433594-1.421875 8.09375 2.007813 10.414062zm0 0"/><path d="m408.152344 452.789062c1.28125.855469 2.726562 1.261719 4.15625 1.261719 2.421875 0 4.800781-1.175781 6.246094-3.339843l4.007812-6.011719c2.296875-3.449219 1.367188-8.105469-2.082031-10.402344-3.441407-2.296875-8.101563-1.367187-10.398438 2.082031l-4.007812 6.011719c-2.296875 3.445313-1.367188 8.101563 2.078125 10.398437zm0 0"/><path d="m256 328.128906c1.917969 0 3.839844-.730468 5.304688-2.195312 2.925781-2.929688 2.925781-7.679688 0-10.605469l-152.308594-152.308594c-2.929688-2.929687-7.675782-2.929687-10.605469 0-2.929687 2.929688-2.929687 7.675781 0 10.605469l152.308594 152.308594c1.460937 1.464844 3.382812 2.195312 5.300781 2.195312zm0 0"/><path d="m334.867188 281.84375c1.460937 1.464844 3.382812 2.195312 5.300781 2.195312s3.839843-.730468 5.304687-2.195312c2.929688-2.929688 2.929688-7.679688 0-10.605469l-220.445312-220.445312c-2.925782-2.929688-7.675782-2.929688-10.605469 0-2.929687 2.929687-2.929687 7.675781 0 10.605469zm0 0"/></svg>